<svg xmlns="http://www.w3.org/2000/svg" viewBox="0 0 1635.61 450.85"><defs><style>.cls-1,.cls-4{font-size:300px;}.cls-1{font-family:darloune;}.cls-2{fill:none;}.cls-3{fill-rule:evenodd;}.cls-4{font-family:Vogue-Regular, Vogue;letter-spacing:0.01em;}.cls-5{font-size:150px;font-family:Georgia;}</style></defs><title>Asset 1</title><g id="Layer_2" data-name="Layer 2"><g id="Layer_1-2" data-name="Layer 1"><text class="cls-1" transform="translate(165.64 315.85)">ail</text><g id="Layer_5" data-name="Layer 5"><path class="cls-2" d="M1133.59,282a128.71,128.71,0,0,1,27.1-19.72A217.78,217.78,0,0,1,1193.8,248c11.72-4,24-7.31,36.57-10.32,6.28-1.51,12.68-2.9,19.11-4.28s12.83-2.66,19.25-3.87a650.13,650.13,0,0,1,77-10.24c12.82-.87,25.62-1.27,38.35-1.11,3.18.08,6.37.11,9.54.22l9.52.44c3.19.23,6.35.41,9.56.66s6.42.52,9.67.85c25.95,2.42,53,6.42,81.65,7.62a290.44,290.44,0,0,0,44-1.26l5.59-.65,1.41-.17,1.49-.23c1-.14,2-.31,3-.47,4-.68,7.9-1.51,11.85-2.53A122,122,0,0,0,1595,214a84.22,84.22,0,0,0,23.15-16.44,65.24,65.24,0,0,0,9.83-13,57.25,57.25,0,0,0,6.19-16.12c.3-1.41.61-2.83.84-4.26s.32-2.86.44-4.29c.06-.72.15-1.45.15-2.15v-2.11c0-1.4,0-2.84-.11-4.21a64.81,64.81,0,0,0-1-8l-.38-1.93-.2-1-.24-.91-1-3.61a88.67,88.67,0,0,0-5.1-12.9,124.74,124.74,0,0,0-6-11c-2.06-3.35-4.16-6.59-6.23-9.57s-4.15-5.92-6-8.59A118.07,118.07,0,0,1,1600.46,80c-2.25-4.41-3.76-8.57-4.1-11.4l-.09-.53-.06-.26v-.23a6.8,6.8,0,0,0-.06-.9,4.41,4.41,0,0,1,0-.75,1.64,1.64,0,0,1,0-.68,3,3,0,0,0,.06-.6,3.5,3.5,0,0,0,.17-.52,2.51,2.51,0,0,0,0-.27,2,2,0,0,0,.14-.25,2.37,2.37,0,0,0,.18-.53l-44.33-21.12c-.6,1.36-1.17,2.74-1.72,4.13l-.8,2.09-.63,2.16c-.4,1.45-.81,2.9-1.13,4.36s-.49,2.92-.7,4.38a36.13,36.13,0,0,0-.37,4.35c-.05,1.42-.16,2.9-.09,4.28s.14,2.76.23,4.14l.08,1,.13,1,.28,2a67.71,67.71,0,0,0,1.53,7.53c.29,1.24.67,2.33,1,3.5s.7,2.33,1.12,3.38l1.22,3.23c.4,1.09.87,2,1.31,3.08.88,2.07,1.83,4,2.79,5.86a163.75,163.75,0,0,0,12.48,20.14c2,2.83,3.84,5.38,5.57,7.92s3.31,5,4.79,7.32,2.71,4.63,3.68,6.73a40.14,40.14,0,0,1,2.35,5.83c.1.42.22.83.34,1.25l.1.31,0,.27.1.56a19.29,19.29,0,0,1,.29,2c0,.31,0,.55,0,.83a2.83,2.83,0,0,0,0,.41c0,.14,0,.24,0,.37a3.49,3.49,0,0,0,0,.72,5.63,5.63,0,0,0-.17.68,8.19,8.19,0,0,1-1,2.65,16.32,16.32,0,0,1-2.33,3,36,36,0,0,1-9.7,6.65,73.33,73.33,0,0,1-14.18,5.12c-2.57.66-5.21,1.22-7.87,1.68-.67.11-1.34.23-2,.32l-1,.15-1.09.13-4.43.51a242.32,242.32,0,0,1-36.63,1c-25.16-1-51.42-4.82-79-7.45-3.43-.34-7-.6-10.42-.91s-7-.48-10.56-.73l-10.64-.49c-3.55-.12-7.09-.16-10.64-.25-14.16-.17-28.27.27-42.29,1.22a701.2,701.2,0,0,0-82.87,11c-6.79,1.28-13.56,2.66-20.3,4.08s-13.47,2.91-20.27,4.54c-13.59,3.26-27.32,6.92-41.06,11.62a265.14,265.14,0,0,0-40.89,17.68A176.82,176.82,0,0,0,1099.18,247Z"/><path class="cls-3" d="M1588.9,162.52a1.18,1.18,0,0,1,.15-.74C1589.25,162,1589.29,162.44,1588.9,162.52Z"/><path class="cls-3" d="M1623,145.29c-.26-.63-1-2.6-.38-2.5A12.91,12.91,0,0,1,1623,145.29Z"/><path class="cls-3" d="M1623,141.66c-.3-.1-.5-1.69-.76-2.39C1622.55,139.2,1623,141.17,1623,141.66Z"/><path class="cls-3" d="M1615.14,134.32a4.1,4.1,0,0,1-1-2C1614.49,132.35,1614.83,133.74,1615.14,134.32Z"/><path class="cls-3" d="M1618.32,128.37a12.2,12.2,0,0,1-2-3.39C1616.92,125.33,1617.64,127.11,1618.32,128.37Z"/><path class="cls-3" d="M1590.58,132c-.83-1.33-2.93-3.81-3.12-5.08C1588.26,128.74,1589.9,130.31,1590.58,132Z"/><path class="cls-3" d="M1598,122.19a13.07,13.07,0,0,1-2.5-3.29,23.41,23.41,0,0,0-2.68-3.71c.27-.66,2.34,3.26,3.17,3.65a12.42,12.42,0,0,1,.7,1.53C1597.12,121,1597.84,121.36,1598,122.19Z"/><path class="cls-3" d="M1584.61,99.54c-.24.22-.51.16-.87-.49a.41.41,0,0,1,.28-.46Z"/><path class="cls-3" d="M1575.6,92a17.94,17.94,0,0,1-3.47-7.41c-.18-.26-.37-.21-.53-.77-.6-1.24-1.26-4.29-.39-1.41C1572.84,85.68,1573.56,88.52,1575.6,92Z"/><path class="cls-3" d="M1580.41,88.12a4.24,4.24,0,0,1-1-1.64C1579.72,86.55,1580.37,87.78,1580.41,88.12Z"/><path class="cls-3" d="M1565,92.19c-.39-.23-.85-1.87-1.26-2.67A7.48,7.48,0,0,1,1565,92.19Z"/><path class="cls-3" d="M1577.71,87.13a27.38,27.38,0,0,1-1.65-2.66C1576.2,83.6,1577.23,86.19,1577.71,87.13Z"/><path class="cls-3" d="M1578.75,85.28a3,3,0,0,1-.82-1.18c-.26-.55-.47-1.2-.72-1.73a4.91,4.91,0,0,1,.74,1.32C1578.2,84.23,1578.48,84.82,1578.75,85.28Z"/><path class="cls-3" d="M1561.1,90.36c-.43,0-.87-1.26-1.31-2.15C1560.22,88.28,1560.66,89.61,1561.1,90.36Z"/><path class="cls-3" d="M1563.26,87.91A12.94,12.94,0,0,1,1562,85.1c-.41-1.28-.79-2.68-1-3.6C1561.9,83.74,1562.39,85.51,1563.26,87.91Z"/><path class="cls-3" d="M1577,81.86c-1.07-1.11-1.2-3.22-1.51-4.34C1576.22,78.64,1576.15,80.61,1577,81.86Z"/><path class="cls-3" d="M1570.52,80.09a9.31,9.31,0,0,1-1-2.23c.23-.15.38.18.52.66S1570.36,79.61,1570.52,80.09Z"/><path class="cls-3" d="M1571,77.29a4.9,4.9,0,0,1-.63-2.27C1570.7,75.19,1570.78,76.61,1571,77.29Z"/><path class="cls-3" d="M1571.87,74.52c-.43-.23-.75-2.37-.07-2,.14.59-.09.55-.28.6C1571.58,73.82,1571.79,73.73,1571.87,74.52Z"/><path class="cls-3" d="M1562,69.1a7,7,0,0,1,.26,2.42c0,.18-.08.17-.15-.17A17.3,17.3,0,0,1,1562,69.1Z"/><path class="cls-3" d="M1557.48,65.08a15.57,15.57,0,0,1,.34-5.18C1557.7,61.15,1557.61,64.28,1557.48,65.08Z"/><path class="cls-3" d="M1556.82,63.79c-.4.57-.21-2.69.12-2Z"/><path class="cls-3" d="M1550.89,59.16a9.28,9.28,0,0,1,.3-3.28A8.94,8.94,0,0,1,1550.89,59.16Z"/><path class="cls-3" d="M1554.72,46.76a12.86,12.86,0,0,1,1.13-3.24C1556,43.4,1555.71,44.33,1554.72,46.76Z"/><path class="cls-3" d="M1575,124.23a7,7,0,0,0-1.19-.87,3.29,3.29,0,0,0-.78-1.5l-.58-.77a5.41,5.41,0,0,1-.53-.88,6,6,0,0,1,1.49,1.82A10.79,10.79,0,0,0,1575,124.23Z"/><path class="cls-3" d="M1566.15,89.4c-.35-.69-.06-.71-.48-1.54.16-.15.31.22.46.19-.48-1.54-1-2.31-1.45-3.61.15.14.31.27.46.21a6.85,6.85,0,0,1-1.05-3,44.9,44.9,0,0,0-1-4.67,34.39,34.39,0,0,1,1.14,3.37c.44,1.26.86,2.66,1.3,4s1,2.66,1.39,3.84.91,2.12,1.25,2.81c-.61-.24-1.33-2.88-1.91-3C1565.85,88.1,1566.86,89.69,1566.15,89.4Z"/><path class="cls-3" d="M1575.53,82.31c-.13-.29-.17-.11-.11,0-.3,0-.49-1.13-.48-1.31C1575.38,81.24,1576.49,84.74,1575.53,82.31Z"/><path class="cls-3" d="M1571.33,62l.47.09a27.9,27.9,0,0,1,.52-3.13,9.48,9.48,0,0,1,1-2.53,10.75,10.75,0,0,1-.44,1.9c-.11.35-.23.72-.34,1.09s-.17.78-.25,1.16c-.15.77-.29,1.53-.36,2.2a3.62,3.62,0,0,0,.22,1.62c-.15.35-.17,1-.32,1.37l.09.92.15.93c.08.62.15,1.25.21,1.88s.14,1.26.23,1.89.18,1.27.26,1.91c.19,1.27.51,2.53.79,3.79a31.94,31.94,0,0,0,1.27,3.64,4.89,4.89,0,0,1-1.11-1.93c-.14-.4-.27-.84-.39-1.28s-.17-.93-.25-1.4c-.15-1-.37-1.9-.53-2.77a6,6,0,0,0-.85-2.26c0-.44.12,0,.16.27-.24-1.13-.17-2.73-.32-4.4,0-.84,0-1.7,0-2.54,0-.42-.06-.83-.1-1.24S1571.38,62.43,1571.33,62Z"/><path class="cls-3" d="M1555.92,62.84a6.75,6.75,0,0,1-.17-1.25c0-.47,0-1,0-1.32,0-.19.17.26.25.85A4.07,4.07,0,0,1,1555.92,62.84Z"/><path class="cls-3" d="M1168.31,205c-1.29.49-2.54,1.45-3.88,2-.79.3-1.56.58-2.33.83l-2.3.83a38.88,38.88,0,0,0-4.58,1.93,37.38,37.38,0,0,0-3.89,2.33c-1.28.82-2.57,1.65-4,2.39a35.1,35.1,0,0,0-4,2.51c-2,1.27-3.82,2.29-5.32,3.26a10,10,0,0,0-3.2,3c-1.21,1.18-2.64,2.36-4,3.57s-2.65,2.45-3.64,3.55a13.13,13.13,0,0,1-1.28.95,32.08,32.08,0,0,0-3.23,4.2c-.94,1.39-1.79,2.77-2.67,4.14s-1.73,2.84-2.74,4.31a47.69,47.69,0,0,1-3.53,4.59,14.16,14.16,0,0,1-.21,3.74c-.19.71-1.06,1.86-1.12,2.46-.19,2.21,2.17,2.62.74,5.48.14.38.61.08.9.16,2,2.19,4.61,3.22,5.7,5.36,2.37-.32,3.14,1.11,5.09,1.07,1.21,0,3-.65,4.33-.83,1.58-.15,3.07-.49,4.45-.47.57.7,1.92-.19,2.63.21,1.82-.83,3.56-1,5.45-1.75.33.13.81,0,1.06.28,1.07-.29,2.1-.59,3.21-.83s2.24-.49,3.38-.79,2.29-.65,3.49-1.06a35.07,35.07,0,0,0,3.76-1.41c.46-.21,1.44-.66,2-1A61.3,61.3,0,0,1,1165,257a16.23,16.23,0,0,1,5.69-1.38c.72-.24.59-.5,1.32-.74a8.25,8.25,0,0,0,5-.38c.61-.28,1.4-1.45,2.71-2.16,2-1,4.35-.79,6.16-1.67.83-.4,1.5-1.4,2.37-1.87a42,42,0,0,1,9.37-3.07c1.68-.34,2.46,0,3.64-.5s1.75-1.3,1.36-2.16c1.33-1.44,4.19-2.44,7.35-3.3a71.75,71.75,0,0,0,9-2.7,19.94,19.94,0,0,0,5.57-1.37,42.25,42.25,0,0,1,5.4-1.71c.74-.14,1.67-.11,2.42-.3,1.26-.3,2.85-1.06,4.44-1.57,2.72-.88,5.19-1.36,7.43-2.16,3.82.4,6.14-1.53,9.14-2.07,1.13-.21,2.31-.06,3.57-.32,1.06-.22,2-.77,3.18-1s2.45-.06,3.56-.28c.83-.17,1.45-.53,2.13-.63a23.5,23.5,0,0,0,2.46-.2c1-.25,1.9-.9,2.9-1.13,3.64-.84,7.69-1.09,11-2.55a60.45,60.45,0,0,0,9.18-1.36,68.57,68.57,0,0,1,10.05-1.32,18.49,18.49,0,0,1,5.12-.87c.42-.15.38-.43,1.06-.5,3.91-.2,7.86-1.64,11.9-1.7a1.32,1.32,0,0,1,.52-.41,85.79,85.79,0,0,0,16.8-1.69,24.59,24.59,0,0,0,5.42-.27c1.91-.22,3.9-.52,6-.67s3.87,0,5.68-.14c3.55-.4,8.23-.36,11.65-.55,1-.07,2-.44,3-.52,1.81-.13,3.76.13,5.68,0,7.43-.73,16-.15,22.43.15,2,.09,3.73-.22,6-.26,3.75,0,7.56.88,11.33,1,1,0,1.89-.12,2.77-.1,2.27.07,4.4.47,6.81.69,5.86.5,11.86.47,17.38,1.64,7.21,0,17.71,1.45,26.19,2.21,2-.46,3.74.28,5.72.4,6.1.36,14,.28,20.47,1.22,13.67.32,27.84.55,42.14-.54l5.35-.46,2.68-.24,2.67-.34c3.59-.5,7-.87,10.79-1.58a115.45,115.45,0,0,0,21.43-6.1,20.82,20.82,0,0,0,7.46-3.07,8.37,8.37,0,0,0,2.82-.85c3.12-2.34,7.73-4,11.83-7.11.62-1.34,3.44-2.71,4.58-4.43.92-.2-.64,1,.62.27.84-1.64,3.49-4.18,6.1-7.3a43.61,43.61,0,0,0,6.22-9.28c-.18.34-.41.31-.2-.13.92-1,.61-1.88,1.21-3.23a32.9,32.9,0,0,0,2.07-6.68c.2-1.08.31-2.15.43-3.18a22.78,22.78,0,0,0,.2-3.06,42.06,42.06,0,0,0-.28-5.88c-.12-1-.2-1.93-.34-2.89s-.35-1.9-.52-2.87c.16-1,.23-3.68-.45-4.47.18,1.39.55,3.13,0,3.1a23.53,23.53,0,0,0-.72-3.65,11.16,11.16,0,0,0-1.27-2.85c-.19-.67-.35-1.25-.48-1.79s-.31-1-.46-1.48a13.74,13.74,0,0,0-1.27-2.87c-.21-.53-.35.74-.81-.4-1.11-3.54-2.38-4.95-3.57-7.92a8.25,8.25,0,0,1-1.8-2.24,12.24,12.24,0,0,1-1.38-2.6c-.72-.76.17,1.2-.39.52l-2.3-3.37a28.56,28.56,0,0,1-1.94-3.36,5.44,5.44,0,0,1-1.72-1.36c-.42-.55.56-.14-.17-.9s0,.93-.51,1c-.93-1-1-.63-1.68-1-.8-1.75-2.09-2.42-3.24-3.7s-2.14-3-3.26-4.28a23.79,23.79,0,0,1-2.53-2.64c-.72-1.08-1-2.23-1.8-3.4-.5-.58-.1.67-.71-.22-2.88-4.14-5.47-8.39-7.73-11.38,3.34,4.62,4.65,8.67,8.12,12.42,0,.93,1.53,1.68,1.35,2.72.44.11,0-1,.56,0a3.63,3.63,0,0,0,.52,1c-.93-.22-.32.65-.45,1.25,2.51,3.51,4.79,6.13,6.94,9.26.53.5,0-.61.57,0,.92,1.14,1.46,2.11,2.55,3.46-.11.69.33,1.78-.53,1.61-2.75-4.36-7.59-9.47-11.13-14.33-1.08-1.47-1.7-3.32-2.93-3.77a14.65,14.65,0,0,1,1.9,3.24,27.22,27.22,0,0,0,1.64,3.12c1.68,2.54,4.2,4.76,5.76,7.33.44.72.46,1.13.89,1.75s1.2,1.13,1.55,1.71.18.8.55,1.3a34,34,0,0,1,2.35,2.88,30.85,30.85,0,0,1,1.66,3.18c.53,1.09,1.08,2.19,1.75,3.31,0,.52-.53.59-.89.11-.7-1.37-1.18-2.13-1.64-2.91s-.93-1.57-1.79-2.88c.14.32.16.56,0,.65-.48-.84-.53-1.21-1.12-1.62,1.25,2,.35,2.27-.44,1.82-2.87-5-7.3-10.48-9.8-14.57a4.16,4.16,0,0,1-1.58-1,148.74,148.74,0,0,1-9.59-14.64,52.6,52.6,0,0,0,5,9.11c2,2.94,4.29,5.91,6.61,8.89.08.31-.33.31.17.88,2.15,2.45,4.22,5.58,5.69,7.59.17,1.22.33,2.4.41,3.56a35.31,35.31,0,0,1,4.66,9.35c1,3,1.88,6,2.93,9.35-.36.08-.29.62-.46.89a14.43,14.43,0,0,1-1.4-1.13c-.2-.51-.4-1-.63-1.5a5.42,5.42,0,0,1-.49-1.49c-3.09-4.81-6.77-12.48-11.75-18.55-1-.45-1,.43-1,1.25,1.8,3.25,4.34,5.6,5.59,9.21-.28.93-.81,1.21-1.45,1a5.65,5.65,0,0,1-2.2-2.21c-1.3-2-3.12-4.77-4.9-7.42s-3.49-5.19-4.39-6.62c-.58-.71-1.24-1.58-1.85-2.37s-1.25-1.62-1.85-2.46l-1.81-2.52-1.75-2.61a109.25,109.25,0,0,1-6.53-11.2,83.44,83.44,0,0,1-5.29-12.84,60.83,60.83,0,0,1-2.89-15.11c0,1.5.08,3,.25,4.45s.4,2.83.63,4.22.63,2.64,1,3.94.77,2.49,1.15,3.73c1.65,4.81,3.56,9.16,5.41,13.27.21-.15.47.09.75.73a113.75,113.75,0,0,0,6.68,11.42c1.2,1.77,2.4,3.52,3.6,5.1l1.77,2.31,1.62,2c.92,2.77,4.78,6.51,5.46,9.2a3.46,3.46,0,0,1-2.4-.82,16.44,16.44,0,0,1-2.69-2.55,69.19,69.19,0,0,1,3.92,6.69c.45.8,1.21,1.83,1.84,2.76a9.89,9.89,0,0,1,1.24,2.25c0,.23-.4,0-.2.37-.18-.32,0,0,.23.32s.48.81.53.87a5.38,5.38,0,0,1,1.07,1.54,4.57,4.57,0,0,1,.61,2.16c.51,1.09.85,2.1,1.3,3.11s.72,2,1.12,2.92l.41,1.38a13.27,13.27,0,0,1,.36,1.37,14.2,14.2,0,0,1,.32,2.59c0,.35.1,1,.1,1.09,0,.31-.31.07-.36.45,0,.21.26.11.23.43a10.92,10.92,0,0,1-.22,1.81,14.67,14.67,0,0,1-.29,1.72c-.3,2.77-2.2,5.46-3.82,7.55-.46.39-.27-.46-.78.15-3.13,3.25-8.27,6.6-14.49,9.26-.48.17-.32-.47-1-.1-.89.28-.44.74-1.25,1a3.11,3.11,0,0,1-1.43-.09c-3.76,1.23-7.72,2.46-11.85,3.53-2.06.54-4.17,1-6.29,1.45-1.07.23-2.14.41-3.21.61l-3.47.48L1542,183l-1.62.21-1.64.14-6.55.56c-4.39.18-8.71.44-13,.43l-5,.12-4.92,0a81.47,81.47,0,0,1-9.47-.44c-2.06,0-4.07-.07-6-.15s-3.87-.17-5.79-.31c-3.84-.29-7.58-.57-11.54-1-5.67-.5-12-1.48-16.83-1.73-.84-.05-1.86.12-2.84,0-1.47-.16-2.91-.73-4.38-.9-4-.45-8.14-.43-12.18-.87l-6.67-.78-6.67-.73c-2.52-.29-5-.09-7.54-.28-1.68-.11-3.4-.6-5.15-.72-4.92-.32-10-.14-14.63-.42-3.12-.22-6.28-.53-9.45-.64a65.89,65.89,0,0,0-9.53.08,193.59,193.59,0,0,0-22.13.27,39.21,39.21,0,0,0-8.32,0c-2.83.28-5.75.66-8.8.75-.65,0-1.09-.14-1.74-.15-9.28,0-19.36,2.24-26.83,2.54-2.71,1-5.17.53-7.77.74-2.8.22-5.32,1-8,1.36-.88.12-1.71,0-2.59.1-2.71.31-5.29,1.11-8.24,1.63-4.4.83-9.28.57-14.22,2.09-4,.25-9.85.78-14.18,2.21a72.08,72.08,0,0,0-11.37,1.95c-3.78.86-7.54,1.85-11.41,2.47-2.62.42-5.11.33-7.61,1.48-2.85,0-6,1.1-9.36,1.83s-6.8,1.23-10.28,2c-5,1.09-10.91,3.26-15,3.13-1.23-1.06-2.38-.38-3.72.64s-2.88,2.45-4.92,2.82c-2.25.15-2.22-.67-3.42-1.32a16.34,16.34,0,0,0-5.42,1.93C1173.11,204.6,1171.14,203.91,1168.31,205Zm437.3-81.08c.14,0,.15-.15.06-.37C1606.49,123.83,1606.46,125.44,1605.61,123.94Zm-.51-.4c-1.28-2.06-3.55-4.61-4.15-6.28-.26-.39-.34.72-.89.18a12.63,12.63,0,0,0-1.78-3.58c.75-.65,2.23,2.53,3,2.19.68,1.18,1,1.76,1.72,2,1.23,2.53,2.08,2.74,2.89,4.73C1605.14,122.6,1605.74,123.35,1605.1,123.54Z"/></g><text class="cls-1" transform="translate(165.64 314.85)">ail</text></g><g id="Layer_2-2" data-name="Layer 2"><text class="cls-4" transform="translate(0 315.58)">T L</text></g><g id="Layer_4" data-name="Layer 4"><g id="Layer_3" data-name="Layer 3"><text class="cls-5" transform="translate(149.29 314.97)">&amp;</text></g></g></g></svg>